<svg xmlns="http://www.w3.org/2000/svg" viewBox="0 0 256 256" role="img" aria-labelledby="title desc">
  <title id="title">友链默认头像</title>
  <desc id="desc">薰衣草紫色星球与微笑星光组成的默认头像</desc>
  <defs>
    <linearGradient id="background" x1="30" y1="20" x2="226" y2="236" gradientUnits="userSpaceOnUse">
      <stop stop-color="#d9ccff"/>
      <stop offset=".45" stop-color="#aa8fe8"/>
      <stop offset="1" stop-color="#6750ad"/>
    </linearGradient>
    <radialGradient id="glow" cx="0" cy="0" r="1" gradientTransform="translate(91 70) rotate(52) scale(155)" gradientUnits="userSpaceOnUse">
      <stop stop-color="#fff" stop-opacity=".68"/>
      <stop offset="1" stop-color="#fff" stop-opacity="0"/>
    </radialGradient>
    <linearGradient id="planet" x1="86" y1="76" x2="166" y2="178" gradientUnits="userSpaceOnUse">
      <stop stop-color="#fff"/>
      <stop offset="1" stop-color="#ece5ff"/>
    </linearGradient>
    <filter id="shadow" x="-40%" y="-40%" width="180%" height="180%">
      <feDropShadow dx="0" dy="9" stdDeviation="10" flood-color="#3f2f79" flood-opacity=".25"/>
    </filter>
  </defs>
  <rect width="256" height="256" rx="58" fill="url(#background)"/>
  <rect width="256" height="256" rx="58" fill="url(#glow)"/>
  <path d="M31 188c34-21 73-28 112-20 34 7 59 23 82 45" fill="none" stroke="#fff" stroke-opacity=".18" stroke-width="18" stroke-linecap="round"/>
  <g fill="#fff">
    <path d="m53 59 3.5 8.5L65 71l-8.5 3.5L53 83l-3.5-8.5L41 71l8.5-3.5L53 59Z" opacity=".92"/>
    <circle cx="203" cy="65" r="5" opacity=".78"/>
    <circle cx="217" cy="102" r="3" opacity=".55"/>
  </g>
  <g filter="url(#shadow)">
    <circle cx="128" cy="130" r="63" fill="url(#planet)"/>
    <path d="M64 136c21 13 50 19 82 13 23-4 42-13 55-24" fill="none" stroke="#8d72cf" stroke-opacity=".4" stroke-width="9" stroke-linecap="round"/>
    <circle cx="105" cy="121" r="5.5" fill="#6750ad"/>
    <circle cx="151" cy="121" r="5.5" fill="#6750ad"/>
    <path d="M106 145c12 13 32 13 44 0" fill="none" stroke="#6750ad" stroke-width="6" stroke-linecap="round"/>
    <circle cx="88" cy="139" r="9" fill="#eeb3d5" fill-opacity=".55"/>
    <circle cx="168" cy="139" r="9" fill="#eeb3d5" fill-opacity=".55"/>
  </g>
  <path d="m189 172 4.2 10.8L204 187l-10.8 4.2L189 202l-4.2-10.8L174 187l10.8-4.2L189 172Z" fill="#fff" opacity=".9"/>
</svg>
